<?xml version="1.0" encoding="UTF-8"?>
<svg width="93px" height="155px" viewBox="0 0 93 155" version="1.1" xmlns="http://www.w3.org/2000/svg" xmlns:xlink="http://www.w3.org/1999/xlink">
    <!-- Generator: Sketch 64 (93537) - https://sketch.com -->
    <title>ilus_delivery_plus</title>
    <desc>Created with Sketch.</desc>
    <g id="Coronavirus_alert_checkout" stroke="none" stroke-width="1" fill="none" fill-rule="evenodd">
        <g id="ilus_delivery_plus" transform="translate(0.000000, 2.000000)">
            <g id="person">
                <path d="M92.813017,147.333333 L52.8369158,147.333333 L48.207832,153 L42.4742264,147.333333 L0,147.333333 L0,128.881463 C0,116.748321 9.85133272,106.911396 22.0052275,106.911396 L70.8077895,106.911396 C82.9603488,106.911396 92.813017,116.748321 92.813017,128.881463 L92.813017,147.333333 Z" id="Path-Copy-6" fill="#9B9B9B" fill-rule="nonzero"></path>
                <path d="M46.9340676,119.281893 C42.7910588,119.281893 39.4320427,115.929578 39.4320427,111.793188 L39.4320427,90.785878 L54.4334218,90.785878 L54.4334218,111.793188 C54.4347569,115.929578 51.0757409,119.281893 46.9340676,119.281893 Z" id="Path-Copy-7" fill="#E39F6E" fill-rule="nonzero"></path>
                <g id="logo" transform="translate(52.829044, 125.000000)" fill="#FFFFFF">
                    <g id="papa-johns-logo.e036da11" transform="translate(0.000000, 0.200000)">
                        <path d="M15.0098276,2.29375517 C15.7086207,2.29375517 16.622069,2.36182414 18.2772414,2.48823793 L18.2772414,2.48823793 L19.8289655,2.60541379 L20.0893211,2.62868821 C22.2743942,2.85258971 26.8445172,3.96879628 28.872931,5.06707931 C29.8634483,5.60385172 29.9710345,5.9830931 29.9710345,7.24723103 L29.9710345,7.24723103 L29.9710345,10.4717552 L29.9690221,10.5752014 C29.9586126,10.8276814 29.9010776,11.1511685 29.6467241,11.4043 C29.3115517,11.7373517 28.8775862,11.7373517 28.3753448,11.7373517 L1.48138215,11.7368949 C1.04840358,11.73324 0.672413793,11.700346 0.374482759,11.4043 C0.0837931034,11.1150069 0.0501724138,10.7338207 0.0501724138,10.4717552 L0.0501724138,10.4717552 L0.0510762284,7.06604774 C0.0631383621,5.94653521 0.207284483,5.57711034 1.14827586,5.06902414 C3.26224138,3.92497931 8.13206897,2.76148621 10.1932759,2.60735862 L10.1932759,2.60735862 L10.2459462,2.60336308 C10.7271149,2.56693862 14.3576207,2.29375517 15.0098276,2.29375517 Z M15.0227586,2.57964483 C14.3368966,2.57964483 13.4208621,2.63750345 11.7708621,2.81496897 L11.7708621,2.81496897 L10.2191379,2.93214483 L9.96232545,2.95505381 C7.80709076,3.17544976 3.30173793,4.27436759 1.30758621,5.35491379 C0.493448276,5.79590345 0.381206897,6.02587931 0.381206897,7.24723103 L0.381206897,7.24723103 L0.381206897,10.4698103 L0.383091887,10.5621273 C0.391551724,10.7557198 0.433669951,10.9967197 0.608793103,11.1709207 C0.847758621,11.4077446 1.18189655,11.4077446 1.64741379,11.4077446 L28.5254286,11.4075516 C28.9131226,11.4052604 29.2015517,11.3818264 29.4139655,11.1709207 C29.6182759,10.9676862 29.6415517,10.673531 29.6415517,10.4698103 L29.6415517,10.4698103 L29.6446552,10.4698103 L29.6446552,7.24723103 L29.6436365,7.0624493 C29.630896,6.0010868 29.4895644,5.77269347 28.7182759,5.35491379 C26.6415517,4.22934483 21.84,3.08384138 19.8067241,2.93214483 L19.8067241,2.93214483 L18.255,2.81496897 L17.9391427,2.77560463 C16.6011128,2.6148601 15.6596305,2.57964483 15.0227586,2.57964483 Z" id="Combined-Shape"></path>
                        <path d="M15.0284483,0.0260862069 C16.0332161,0.0307343405 17.0356371,0.117771203 18.0243103,0.286206897 C18.752069,0.410189655 19.2734483,0.541465517 19.362931,0.649889655 C19.3728325,0.668754337 19.3750405,0.690374683 19.3691379,0.710665517 C19.3432759,0.8152 18.9382759,2.57915862 18.9341379,2.5990931 L18.8886207,2.7960069 L18.8493103,2.76732069 C18.7006034,2.63219569 16.8740697,2.41937381 15.2407568,2.42113002 L15.0289655,2.4226 C13.3427586,2.40023448 11.2381034,2.66035517 11.1263793,2.81156552 L11.1082759,2.82955517 L11.0953448,2.78093448 C11.0912069,2.76051379 10.6334483,0.767065517 10.6075862,0.662044828 C10.6099626,0.643814668 10.6184813,0.626777315 10.6318966,0.613424138 C10.7958621,0.414565517 12.7194828,0.0260862069 15.0284483,0.0260862069 Z M17.3932759,0.588627586 L16.8056897,2.03266207 L17.1501724,2.07398966 L17.2106897,1.89603793 L17.5318966,1.93493448 L17.5432759,2.12115172 L17.9032759,2.16393793 L17.7403448,0.630441379 L17.3932759,0.588627586 Z M12.6903079,0.600988846 L12.5875862,0.607103448 L12.117931,0.661558621 L12.3139655,2.15226897 L12.6574138,2.11191379 L12.5782759,1.51144828 L12.7018966,1.49734828 C13.0184483,1.46039655 13.2248276,1.26348276 13.1875862,0.980510345 C13.1503448,0.697537931 12.9041379,0.570637931 12.5875862,0.607103448 Z M13.7658621,0.495275862 L13.4187931,0.514237931 L13.5124138,2.0137 L13.8589655,1.99425172 L13.7658621,0.495275862 Z M15.6268966,0.456865517 L15.612931,0.723793103 L16.1793103,0.75102069 L15.5384483,1.73413103 L15.5265517,1.95681379 L16.5331034,2.00348966 L16.547069,1.73656207 L15.9367241,1.70787586 L16.5863793,0.707748276 L16.5972414,0.502568966 L15.6268966,0.456865517 Z M15.1841379,0.458810345 L14.2127586,0.469506897 L14.2163793,0.73692069 L14.7853448,0.7306 L14.2101724,1.74871724 L14.2127586,1.9714 L15.2193103,1.96070345 L15.2162069,1.69328966 L14.6048276,1.70009655 L15.1867241,0.664475862 L15.1841379,0.458810345 Z M12.6201724,0.868196552 C12.7427586,0.854096552 12.8317241,0.90612069 12.8462069,1.01794828 C12.8568185,1.06974101 12.8435666,1.12333436 12.8097423,1.16541849 C12.775918,1.20750263 12.7246945,1.23412944 12.6687931,1.23868621 L12.6687931,1.23868621 L12.5456897,1.25278621 L12.497069,0.882296552 Z" id="Combined-Shape" fill-rule="nonzero"></path>
                        <path d="M10.875,3.03424828 L10.4487931,1.29508621 L10.4394828,1.29508621 C10.1115517,1.29508621 8.90586207,1.59896552 8.90586207,1.59896552 L9.59172414,2.27965517 L9.44431034,3.48155862 C9.44431034,3.48155862 9.85810345,3.38042759 10.0489655,3.33132069 C10.2662069,3.27443448 10.4710345,3.22095172 10.6474138,3.18545862 C10.7572041,3.16393557 10.868546,3.15012157 10.9805172,3.14413103 L11.0689655,3.13829655 L11.0291379,3.11738966 L10.875,3.03424828 Z" id="Path" fill-rule="nonzero"></path>
                        <path d="M19.0981034,3.06731034 L19.5243103,1.32766207 L19.5336207,1.32766207 C19.8615517,1.32766207 21.0672414,1.63202759 21.0672414,1.63202759 L20.3813793,2.3098 L20.5287931,3.51170345 C20.5287931,3.51170345 20.115,3.41057241 19.9241379,3.36146552 C19.7068966,3.30506552 19.502069,3.25158276 19.3256897,3.21560345 C19.2158184,3.19356681 19.1042625,3.17974771 18.992069,3.17427586 L18.9041379,3.16795517 L18.9439655,3.14704828 L19.0981034,3.06731034 Z" id="Path" fill-rule="nonzero"></path>
                        <path d="M2.46672414,8.81427586 L2.39327586,8.82254138 C2.39672414,9.2961069 2.40017241,9.76983448 2.40362069,10.2437241 L1.3587931,10.2481 L1.3587931,6.48972069 C1.7212069,6.36233448 2.08534483,6.24013448 2.4512069,6.12312069 C3.31965517,5.83771724 3.8612069,6.12652414 3.87568966,7.17624483 C3.89017241,8.21526897 3.35068966,8.72578621 2.46672414,8.81427586 Z M2.52206897,7.02114483 L2.38034483,7.05615172 C2.38241379,7.3832069 2.38482759,7.7101 2.38758621,8.03683103 L2.52982759,8.01154828 C2.78844828,7.96633103 2.89965517,7.69988966 2.89655172,7.40427586 C2.89344828,7.10866207 2.78068966,6.9559931 2.52206897,7.02114483 L2.52206897,7.02114483 Z" id="Shape" fill-rule="nonzero"></path>
                        <path d="M7.92206897,8.33244483 L7.82741379,8.33876552 L7.82741379,10.2281655 L6.75413793,10.2281655 L6.74586207,4.97324138 C6.74586207,4.97324138 7.49637931,4.82737931 7.87293103,4.7632 C8.76775862,4.60518276 9.45206897,5.0593 9.46862069,6.36768276 C9.48413793,7.66147931 8.80655172,8.2459 7.92206897,8.33244483 Z M7.95517241,5.90675862 C7.90758621,5.91307931 7.82948276,5.92766552 7.82948276,5.92766552 C7.82948276,5.92766552 7.82482759,6.80283793 7.82948276,7.23653448 C8.31,7.19812414 8.41706897,6.99343103 8.41706897,6.46686897 C8.41913793,6.0531069 8.21844828,5.87126552 7.95517241,5.90675862 L7.95517241,5.90675862 Z" id="Shape" fill-rule="nonzero"></path>
                        <path d="M26.2484483,6.59814483 C26.1067241,6.57351034 25.9646552,6.54936207 25.8222414,6.5257 C25.8568966,6.2014 25.9018966,5.86640345 25.9365517,5.54745172 C26.1222414,5.59607241 26.3110345,5.65441724 26.4951724,5.70644138 C26.4181034,5.99524828 26.3265517,6.29475172 26.2484483,6.59814483 Z" id="Path" fill-rule="nonzero"></path>
                        <path d="M25.6463793,9.75897586 C25.6463793,9.55963103 25.6463793,9.36287931 25.6463793,9.16872069 L25.6463793,5.47354828 L25.6189655,5.46674138 L25.6189655,5.46674138 C25.3024138,5.38943448 25.1017241,5.33984138 24.7701724,5.26058966 L24.7593103,5.25767241 L24.7593103,5.25767241 C24.7593103,5.32282414 24.7593103,5.38651724 24.7593103,5.44923793 L24.7593103,7.76261034 C24.4924138,6.81985517 24.1965517,6.05018966 23.8918966,5.07923448 C23.8748276,5.07923448 23.8572414,5.07534483 23.8401724,5.07291379 L22.8884483,4.88134828 L22.8884483,7.99598966 C22.8765517,8.71995172 22.8646552,9.4512069 22.8527586,10.2242759 L23.8722414,10.2242759 L23.8722414,7.58563103 C24.1308621,8.49143448 24.4696552,9.37341379 24.7189655,10.2271931 L24.9346552,10.2271931 L25.6417241,10.2271931 L25.6417241,10.2271931 L25.6463793,10.2271931 L25.6463793,9.75897586 Z" id="Path"></path>
                        <path d="M22.5325862,4.82494828 L22.5087931,4.82154483 C22.1467241,4.76271379 21.4510345,4.66352759 21.4510345,4.66352759 L21.4510345,6.74254828 L20.6601724,6.74254828 L20.6601724,4.76368621 C20.6601724,4.69707586 20.6601724,4.63338276 20.6601724,4.57455172 L20.5251724,4.55753448 L19.6737931,4.44765172 L19.5398276,4.43014828 L19.5398276,4.43014828 L19.5398276,4.48995172 C19.53,5.49883103 19.5346552,6.43477931 19.5398276,7.34593103 L19.5398276,10.2194138 L20.6591379,10.2194138 L20.6591379,8.08447931 L21.4515517,8.08447931 L21.4515517,10.1926724 L21.4515517,10.2194138 L22.532069,10.2194138 L22.5325862,4.82494828 Z" id="Path" fill-rule="nonzero"></path>
                        <path d="M27.6786207,7.5618069 C27.5089655,7.39163448 27.4086207,7.24917586 27.4086207,7.13005517 C27.4086207,6.99877931 27.4603448,6.88403448 27.6196552,6.89181379 C27.8068966,6.90153793 27.8374138,7.12178966 27.8462069,7.26716552 C27.8462069,7.29974138 27.8508621,7.33328966 27.852931,7.3644069 L28.7948276,7.3644069 C28.7658621,6.58647586 28.4632759,6.10804828 27.7365517,5.97093793 C27.045,5.84063448 26.3813793,6.13381724 26.3705172,6.94335172 C26.3637931,7.4422 26.5986207,7.88853793 26.9912069,8.25124828 C27.1691379,8.41785517 27.3474138,8.57992414 27.5260345,8.73745517 C27.6967241,8.8872069 27.7846552,8.99222759 27.7815517,9.10211034 C27.7815517,9.23630345 27.7044828,9.34521379 27.5462069,9.34521379 C27.3553448,9.34521379 27.2710345,9.16337241 27.2627586,9.01118966 C27.2596552,8.94992759 27.257069,8.88088621 27.2565517,8.81378966 L26.31,8.81378966 C26.31,8.85803448 26.31,8.90227931 26.31,8.94652414 C26.2986207,9.77015862 26.79,10.2850517 27.5084483,10.2850517 C28.347931,10.2850517 28.8144828,9.78668966 28.8129349,9.11815517 C28.8129349,8.72286897 28.5708621,8.41801724 28.202069,8.06648966 C28.0268966,7.90377241 27.8524138,7.73554483 27.6786207,7.5618069 Z" id="Path" fill-rule="nonzero"></path>
                        <path d="M5.60482759,5.21002414 C5.23206897,5.29527241 4.86034483,5.38586897 4.48965517,5.48181379 C4.21862069,7.14318276 3.94448276,8.7321069 3.66568966,10.2388621 L4.71103448,10.2359448 C4.73068966,10.0453517 4.77155172,9.66124828 4.77155172,9.66124828 L5.38862069,9.66124828 C5.38862069,9.66124828 5.44034483,10.0361138 5.46465517,10.2335138 L6.54413793,10.2335138 C6.23103448,8.49645862 5.91793103,6.82196207 5.60482759,5.21002414 Z M4.86310345,8.77246207 C4.86310345,8.77246207 4.98517241,7.60556552 5.04206897,7.02211724 L5.05344828,7.02211724 C5.12534483,7.58465862 5.28672414,8.77246207 5.28672414,8.77246207 L4.86310345,8.77246207 Z" id="Shape" fill-rule="nonzero"></path>
                        <path d="M11.5386207,4.35721724 C11.1455172,4.39757241 10.4808621,4.45932069 10.0805172,4.49918966 C9.78775862,6.46297931 9.49913793,8.33390345 9.21258621,10.2252483 L10.382069,10.2252483 L10.4456897,9.53288966 L11.2184483,9.53288966 C11.2184483,9.53288966 11.2701724,9.99235517 11.2975862,10.2257345 L12.4872414,10.2257345 C12.1737931,8.23325862 11.8634483,6.29912759 11.5386207,4.35721724 Z M10.5656897,8.47636207 L10.8181034,6.3637931 L10.8382759,6.3637931 L11.1393103,8.47393103 L10.5656897,8.47636207 Z" id="Shape" fill-rule="nonzero"></path>
                        <path d="M17.6834483,4.24441724 C16.8367241,4.21670345 16.1736207,4.85363448 16.1705172,5.95878276 C16.1674138,6.81223793 16.1644828,7.6656931 16.1617102,8.51914828 C16.1581034,9.61554483 16.8584483,10.2913724 17.6901724,10.2899161 C18.5218966,10.2884552 19.1560345,9.58296897 19.167931,8.51623103 C19.1772414,7.68335862 19.1798276,6.89521724 19.1891379,6.06234483 C19.2010345,4.98734138 18.6455172,4.27553448 17.6834483,4.24441724 Z M17.9586207,8.84831034 C17.9586207,8.98257267 17.8428323,9.09141379 17.7,9.09141379 L17.6534483,9.09141379 C17.510616,9.09141379 17.3948276,8.98257267 17.3948276,8.84831034 L17.3948276,5.68310345 C17.3948276,5.54884112 17.510616,5.44 17.6534483,5.44 L17.7,5.44 C17.8428323,5.44 17.9586207,5.54884112 17.9586207,5.68310345 L17.9586207,8.84831034 Z" id="Shape" fill-rule="nonzero"></path>
                        <path d="M14.7005172,4.22448276 L14.7005172,8.58089655 L14.7005172,8.58089655 L14.7005172,8.96256897 C14.700394,9.04813615 14.6349924,9.12129439 14.5453448,9.13614483 C14.540693,9.13638035 14.5360311,9.13638035 14.5313793,9.13614483 L14.5282759,9.13614483 L14.5153448,9.13614483 L14.5008621,9.13614483 C14.3975694,9.13587771 14.3139049,9.057233 14.3136207,8.96013793 L14.3136207,8.35967241 C13.9939655,8.35967241 13.5977586,8.36502069 13.2791379,8.36939655 C13.2791379,8.51525862 13.2791379,8.85268621 13.2791379,8.99708966 C13.2791379,9.75411379 13.7710345,10.2743552 14.5065517,10.2743552 C14.5693396,10.2742615 14.6320559,10.2703638 14.6943103,10.2626862 C15.4991379,10.2077448 15.8322414,9.70597931 15.8322414,8.57117241 L15.84,4.22642759 L14.7005172,4.22448276 Z" id="Path" fill-rule="nonzero"></path>
                        <path d="M22.1187087,2.73213844 C21.9161084,2.73344939 21.7327473,2.61235197 21.6544063,2.42549852 C21.5760652,2.23864508 21.6182349,2.0229827 21.7611871,1.87940354 C21.9041394,1.73582439 22.119608,1.69271879 22.3067914,1.77025261 C22.4939748,1.84778643 22.6158606,2.03062866 22.6154277,2.23324124 C22.6177746,2.36588712 22.5662668,2.49382159 22.4726647,2.58783412 C22.3790627,2.68184666 22.251358,2.73391058 22.1187087,2.73213844 Z M22.1187087,1.80553801 C21.9449838,1.80203199 21.7864054,1.90398623 21.7174804,2.06349831 C21.6485554,2.22301038 21.6829856,2.40837041 21.8045942,2.53248837 C21.9262028,2.65660633 22.1108149,2.69480844 22.2716918,2.62914573 C22.4325688,2.56348302 22.5377294,2.40700877 22.5377648,2.23324124 C22.5419242,2.12008749 22.4994005,2.01019682 22.420158,1.92931923 C22.3409156,1.84844165 22.231919,1.80368543 22.1187087,1.80553801 L22.1187087,1.80553801 Z M22.2902143,2.46192493 C22.2244166,2.46192493 22.2017649,2.44466578 22.2017649,2.38911291 L22.2017649,2.33194198 C22.2017649,2.29364825 22.1845064,2.26614149 22.1429784,2.26614149 L22.0583042,2.26614149 L22.0583042,2.45653145 L21.9714728,2.45653145 L21.9714728,2.0029395 L22.1516076,2.0029395 C22.2503042,2.0029395 22.284821,2.05148085 22.284821,2.12591092 L22.284821,2.13993398 C22.284821,2.19386881 22.2659446,2.22622971 22.2103941,2.23647733 C22.2572706,2.24184812 22.2915478,2.28326816 22.288057,2.33032394 L22.288057,2.38425877 C22.288057,2.39828183 22.2950682,2.40367531 22.3123267,2.40367531 L22.3123267,2.46408232 L22.2902143,2.46192493 Z M22.1985289,2.12429288 C22.2005089,2.10946933 22.1954671,2.09456984 22.1848926,2.08399492 C22.1743181,2.07341999 22.1594193,2.06837799 22.1445963,2.07035804 L22.0583042,2.07035804 L22.0583042,2.20735252 L22.1375851,2.20735252 C22.1545799,2.20980683 22.1717278,2.20402148 22.1837626,2.19177311 C22.1957975,2.17952474 22.2012809,2.16227734 22.1985289,2.14532746 L22.1985289,2.12429288 Z" id="Shape" fill-rule="nonzero"></path>
                    </g>
                </g>
                <path d="M46.1050235,99.2506747 C32.376465,99.2506747 20.7982105,89.0443806 19.0966654,75.4444338 L8.57352941,35.2886546 L78.1365464,35.2886546 L73.1133819,75.4444338 C71.4118364,89.0443806 59.8322468,99.2506747 46.1050235,99.2506747 Z" id="Path" fill="#F8C298" fill-rule="nonzero"></path>
                <path d="M33.4791667,57 C35.4236692,57 37,58.5923625 37,60.5566412 C37,61.4168435 36.6976971,62.205721 36.1945564,62.8207768 L36.2299688,62.8317557 L35.9947009,63.0450996 C35.8852839,63.1579536 35.7684846,63.2634754 35.6450922,63.3608677 L30.5095215,68 L25.5948464,63.5344476 C24.6344466,62.8992893 24,61.8028102 24,60.5566412 C24,58.5923625 25.5763308,57 27.5208333,57 C28.7757693,57 29.8773578,57.6632359 30.5008383,58.6616443 C31.1226422,57.6632359 32.2242307,57 33.4791667,57 Z" id="Combined-Shape" fill="#FF5A5A"></path>
                <path d="M63.4791667,57 C65.4236692,57 67,58.5923625 67,60.5566412 C67,61.4168435 66.6976971,62.205721 66.1945564,62.8207768 L66.2299688,62.8317557 L65.9947009,63.0450996 C65.8852839,63.1579536 65.7684846,63.2634754 65.6450922,63.3608677 L60.5095215,68 L55.5948464,63.5344476 C54.6344466,62.8992893 54,61.8028102 54,60.5566412 C54,58.5923625 55.5763308,57 57.5208333,57 C58.7757693,57 59.8773578,57.6632359 60.5008383,58.6616443 C61.1226422,57.6632359 62.2242307,57 63.4791667,57 Z" id="Combined-Shape-Copy" fill="#FF5A5A"></path>
                <path d="M8.57352941,45.9123212 C8.57352941,45.9123212 22.4022578,49.8126886 35.1050813,40.5558172 C35.1050813,40.5558172 61.1649347,61.7871485 88.7636249,42.3386515 C89.6976494,41.6808118 84.7239797,36.3296415 73.8426157,26.2851406 L8.57352941,26.2851406 L8.57352941,45.9123212 Z" id="Path-Copy-5" fill="#627687" fill-rule="nonzero"></path>
                <path d="M46.1050235,0.170682731 C73.0986903,0.170682731 93.3008676,24.8956766 87.8796962,51.2968279 L87.8796962,51.2968279 L86.2839713,59.06953 C85.9550825,60.671532 85.348046,62.2035197 84.4903959,63.5960046 L84.4903959,63.5960046 L74.3946574,79.987496 C73.026343,82.2090981 71.1919074,84.046687 69.0609574,85.4055299 C72.4962109,78.5921063 74.0589816,70.6788372 74.0589816,64.1041446 C74.0589816,49.1135116 65.9347126,29.0160643 46.0128676,29.0160643 C26.0910227,29.0160643 12.9609517,48.4325583 17.0959472,65.0301205 C18.8355857,72.0128993 20.7035627,79.494623 23.7674583,85.8195315 C22.1549841,84.7744396 20.7516756,83.3937051 19.6678414,81.7371019 L19.6678414,81.7371019 L7.88356002,63.7252339 C6.91781454,62.2491252 6.23972465,60.603805 5.88498437,58.8758812 L5.88498437,58.8758812 L4.32901557,51.2968279 C-1.09215582,24.8956766 19.1100212,0.170682731 46.1050235,0.170682731 Z" id="Combined-Shape" stroke="#BA151A" stroke-width="3" fill="#BA151A" fill-rule="nonzero" stroke-linejoin="round"></path>
                <path d="M52.4874361,74.0589264 C50.8820537,76.2724681 40.2480634,76.2724681 38.642681,74.0589264 C37.8119421,72.9134852 36.2078951,72.6574611 35.0606208,73.4868727 C33.9133468,74.3162839 33.656913,75.9177682 34.4876516,77.0618757 C37.0546612,80.602209 40.8278437,85.8195315 45.1965676,85.8195315 C49.5652918,85.8195315 54.0741204,80.602209 56.64113,77.0618757 C57.4718685,75.9177682 57.2154347,74.3162839 56.0681604,73.4868727 C54.9208864,72.6574611 53.318175,72.9134852 52.4874361,74.0589264 Z" id="Path" fill="#000000" fill-rule="nonzero"></path>
                <path d="M52.4874361,74.0589264 C50.8820537,76.2724681 40.2480634,76.2724681 38.642681,74.0589264 C37.8119421,72.9134852 36.2078951,72.6574611 35.0606208,73.4868727 C33.9133468,74.3162839 33.656913,75.9177682 34.4876516,77.0618757 C39.3871599,78.0209508 43.0837642,78.5179113 45.5774644,78.5527572 C49.519311,78.15463 53.2071996,77.6576695 56.64113,77.0618757 C57.4718685,75.9177682 57.2154347,74.3162839 56.0681604,73.4868727 C54.9208864,72.6574611 53.318175,72.9134852 52.4874361,74.0589264 Z" id="Path" fill="#FFFFFF" fill-rule="nonzero"></path>
            </g>
            <path d="M45.5003198,28 C61.3168064,28 74.6805903,38.5380683 78.9997588,52.9991925 C70.6698256,45.2417281 58.7445449,40.3844181 45.5003198,40.3844181 C32.2563085,40.3844181 20.3311991,45.2415713 12.0013313,52.9978919 C16.3206662,38.5375819 29.6841982,28 45.5003198,28 Z" id="Combined-Shape" fill="#970D11"></path>
        </g>
    </g>
</svg>